<?xml version="1.0" encoding="utf-8"?>
<!-- Generator: Adobe Illustrator 24.0.1, SVG Export Plug-In . SVG Version: 6.00 Build 0)  -->
<svg version="1.1" id="Layer_1" xmlns="http://www.w3.org/2000/svg" xmlns:xlink="http://www.w3.org/1999/xlink" x="0px" y="0px"
	 viewBox="0 0 600 600" style="enable-background:new 0 0 600 600;" xml:space="preserve">
<style type="text/css">
	.st0{fill:#FFA500;}
	.st1{fill:#006BD4;}
</style>
<g>
	<g>
		<g>
			<path class="st0" d="M204.8,456.5c0.2,1.3,0.4,2.2,0.4,3.2c0,5-0.1,10,0,15c0,1.8-0.6,2.7-2.3,3.2c-5.5,1.6-11,3.4-16.6,5.2
				c-7.5,2.4-14.9,4.9-22.4,7c-4.2,1.2-8.6,2.4-13,2.5c-8.3,0.3-15.5-3-21.8-8.3c-6.3-5.3-9.1-12.6-11.3-20.2
				c-1.7-5.9-3.7-11.7-5.5-17.5c-1.6-5.1-3.1-10.2-4.7-15.3c-3.2-10.4-6.4-20.9-9.7-31.3c-2.3-7.4-4.5-14.8-6.8-22.1
				c-1.9-6-3.9-11.9-5.9-17.8c-1.3-3.9-2.4-7.8-3.6-11.7c-4.3-13.6-8.6-27.1-12.8-40.7c-3-9.7-5.7-19.4-8.6-29.1
				c-2.3-7.4-4.8-14.7-7.1-22.1c-2.5-7.9-4.8-15.9-7.3-23.8c-1.1-3.5-2.4-6.8-3.6-10.3c-1.4-4.4-2.7-8.9-4.1-13.4
				c-2.8-9.5-5.6-18.9-8.5-28.4c-3.6-11.5-7.2-23-10.8-34.4c-2.2-7-4.4-14.1-6.7-21.1c-5.3-16.3,0.5-32.1,15-40.7
				c2.1-1.3,4.5-2.1,6.9-2.9c3.7-1.2,7.4-2.2,11.1-3.4c5-1.6,9.9-3.2,14.9-4.8c3.2-1,6.5-2,9.8-3c4.4-1.3,8.7-2.5,13.1-3.8
				c3-0.9,6.1-1.9,9.1-2.9c8.6-2.7,17.1-5.4,25.7-8.1c7.2-2.3,14.5-4.7,21.7-7c7-2.2,14.2-4.1,21.2-6.3c7.5-2.3,14.9-4.9,22.4-7.2
				c7-2.2,14.1-4.3,21.2-6.5c3.5-1.1,7-1.9,10.4-3.2c5.2-2,9.8-0.7,14.4,1.8c6.5,3.5,13.1,6.9,19.6,10.3c5.2,2.8,10.4,5.6,15.6,8.4
				c2.9,1.5,5.8,3,8.8,4.5c9,4.6,18,9.2,27,13.9c5.7,3,11.4,6.1,17.1,9.2c8.3,4.4,16.7,8.8,25,13.2c3.2,1.7,5.5,4.2,6.6,7.8
				c3.1,10.1,6.5,20.2,9.7,30.2c0.8,2.4,1.5,4.8,2.1,7.2c0.2,0.8,0.2,1.7,0.4,3c-6.9,0.1-13.6,0.3-20.6-0.3
				c-0.7-2.1-1.6-4.2-2.2-6.3c-1.2-4-2.4-8.1-3.6-12.1c-0.8-2.6-0.9-2.8-3.6-2.1c-3.8,1-7.6,2.2-11.4,3.4c-8,2.5-16,5.1-24,7.6
				c-7,2.2-14,4.6-21.1,6.7c-4,1.2-8.1,2.5-12.3,2.8c-7.1,0.5-13.7-1.8-19.6-5.7c-1-0.7-2-1.5-3-2.2c-5.3-3.8-8.3-9.3-10.3-15.3
				c-3.5-10.9-6.9-21.9-10.3-32.9c-2.7-8.7-5.4-17.4-8.2-26c-0.4-1.3-0.9-2.5-1.5-4.1c-1.4,0.4-2.7,0.7-3.9,1.1
				c-1.8,0.6-3.6,1.2-5.5,1.8c-2.2,0.7-4.3,1.4-6.5,2.1c-7,2.1-13.9,4.1-20.9,6.3c-2.3,0.7-4.5,1.6-6.7,2.3c-4.3,1.4-8.6,2.9-13,4.2
				c-4.1,1.3-8.3,2.5-12.4,3.8c-5.2,1.6-10.3,3.3-15.5,5c-3.7,1.1-7.4,2.2-11.1,3.3c-4.1,1.3-8.2,2.6-12.4,3.8
				c-5.1,1.6-10.2,3.1-15.3,4.7c-4.3,1.4-8.6,2.9-12.9,4.3c-3.9,1.2-7.9,2.3-11.8,3.5c-7.1,2.2-14.1,4.4-21.1,6.7
				c-2.8,0.9-5.6,2.1-7.3,4.7c-2,3-3.4,6.2-2.2,10c1,3.3,1.9,6.6,2.9,9.8c5.9,18.9,11.7,37.8,17.7,56.7
				c5.5,17.5,11.1,34.9,16.5,52.4c2.3,7.4,4.3,14.8,6.6,22.2c1.1,3.7,2.8,7.2,4,10.9c1,3,1.6,6.2,2.5,9.2c1.7,5.5,3.5,11,5.3,16.6
				c3.3,10.4,6.6,20.8,9.8,31.3c2.8,9.1,5.5,18.3,8.3,27.4c3.3,10.5,6.7,21,10,31.5c4.1,13.2,8.1,26.5,12.2,39.8
				c2,6.4,4.3,12.7,6.3,19.1c2,6.3,3.9,12.6,5.8,18.9c0.9,3.1,1.7,6.2,4.5,8.2c1.4,1,3.2,2,4.9,2.2c3.9,0.5,7.7,0.3,11.4-1.3
				c1.9-0.8,3.9-1.2,5.8-1.8c3.5-1.1,6.9-2.2,10.4-3.3c9.2-2.9,18.4-5.7,27.7-8.6C203.3,456.8,203.8,456.7,204.8,456.5z M232,51.9
				c0.2,1.7,0.2,2.8,0.5,3.8c1.6,5,3.3,9.9,4.8,14.9c3.4,10.8,6.8,21.7,10,32.6c1,3.4,2.9,6.2,5.4,8.6c0.9,0.9,2.3,1.5,3.6,1.7
				c4.2,0.7,8.4,0.3,12.4-1.3c3.9-1.5,7.9-2.8,11.9-4c4-1.2,8.1-2.3,12.1-3.5c6.2-1.8,12.3-3.8,18.5-5.6c1.9-0.6,3.8-1.2,5.6-2.7
				C288.5,81.5,260.7,66.9,232,51.9z"/>
			<path class="st0" d="M204.5,185.8c0.3,1.5,0.6,2.5,0.7,3.6c0.1,4.9,0,9.8,0.1,14.7c0,1.8-0.6,2.8-2.2,3.3
				c-1.4,0.4-2.8,1.1-4.2,1.5c-8.3,2.6-16.6,5.3-25,7.8c-7.8,2.4-15.7,4.6-23.5,6.9c-2.5,0.7-4.9,1.7-7.4,2.5
				c-10,3.2-19.9,6.3-29.9,9.4c-2.7,0.8-5.4,1.7-8.2,2.3c-4.1,0.9-8.9-1.4-10.8-4.9c-2-3.9-1.3-8.4,1.7-11.6
				c1.6-1.7,3.5-2.8,5.7-3.5c5.6-1.6,11.1-3.4,16.6-5.1c10.4-3.2,20.8-6.3,31.2-9.5c4-1.2,7.9-2.7,11.9-4c3.1-1,6.3-2,9.4-2.9
				c7.6-2.3,15.2-4.6,22.8-6.9C197,188.1,200.4,187,204.5,185.8z"/>
			<path class="st0" d="M205,237c0,7.2,0,13.9,0,20.5c-3.6,1.3-6.9,2.5-10.2,3.6c-5,1.6-9.9,3.2-14.9,4.8c-0.8,0.2-1.5,0.5-2.3,0.7
				c-5.6,0.9-10.8,3.2-16.2,4.9c-3.2,1-6.5,2-9.8,3c-5,1.5-9.9,3.1-14.9,4.6c-5.7,1.8-11.4,3.7-17.3,5.2c-5.2,1.3-8.8-1.3-11-5.4
				c-2.5-4.7-0.8-10.6,3.8-12.7c4.4-2.1,9.1-3.4,13.8-4.9c4.8-1.6,9.7-3.2,14.6-4.7c3-1,6.1-1.8,9.1-2.7c7.4-2.3,14.8-4.5,22.1-6.8
				c4.3-1.4,8.6-2.8,12.9-4.2c2.4-0.8,4.8-1.4,7.1-2.2c3.2-1,6.4-2.2,9.7-3.1C202.6,237.1,203.7,237.1,205,237z"/>
			<path class="st0" d="M205.2,298.6c0,2.6,0.1,5.2,0,7.9c-0.1,2.8-0.7,3.3-3.4,3.7c-1.8,0.3-3.5,0.7-5.3,1.2
				c-4.9,1.5-9.8,3-14.6,4.6c-4.3,1.4-8.6,2.8-12.9,4.3c-0.8,0.2-1.5,0.5-2.3,0.7c-5.3,1.6-10.7,3.2-16,4.7
				c-5.6,1.6-11.1,3.4-16.7,4.8c-5.4,1.3-10.3-1.7-11.5-6.4c-1.5-5.8,1.1-11,6.5-13c0.5-0.2,1.1-0.4,1.6-0.5
				c10.9-2.7,21.4-6.7,32.2-9.9c7.4-2.2,14.7-4.5,22.1-6.9c4.2-1.3,8.4-2.7,12.6-4c1.8-0.6,3.7-0.9,5.6-1.4c1.5-0.4,2.2,0.3,2.2,1.7
				C205.2,292.9,205.2,295.7,205.2,298.6C205.2,298.6,205.2,298.6,205.2,298.6z"/>
			<path class="st0" d="M204.4,338.7c0.3,1.2,0.7,2.2,0.7,3.3c0.1,5,0,10,0.1,15c0,1.8-0.7,2.7-2.4,3.2c-3,0.9-6.1,1.9-9.1,2.8
				c-3,0.9-6,1.9-9,2.8c-8.3,2.6-16.7,5.2-25,7.9c-3,1-6,2-9.1,2.8c-1.7,0.4-3.6,0.5-5.4,0.4c-4.4-0.3-7.6-3.2-8.5-7.5
				c-0.9-4.1,0.7-8.6,4.6-10.4c4.2-2,8.7-3.3,13.1-4.8c5-1.7,10.1-3.3,15.2-4.9c3.8-1.2,7.6-2.2,11.4-3.4c1-0.3,2-0.5,3-0.8
				c5.3-1.6,10.6-3.3,15.9-5C201.1,339.7,202.4,339.3,204.4,338.7z"/>
			<path class="st0" d="M205.2,400.1c0,2.3,0,4.5,0,6.8c-0.1,3.5-0.4,3.7-3.6,4.7c-7.4,2.3-14.7,4.7-22.1,7
				c-4.7,1.5-9.5,2.9-14.3,4.3c-1.2,0.3-2.5,0.4-3.7,0.5c-5,0.4-8.3-1.7-9.9-6.4c-1.6-4.7-0.3-9.4,3.9-11.5c4.1-2.1,8.6-3.3,13-4.8
				c4.9-1.7,9.9-3.2,14.9-4.8c2.7-0.9,5.4-1.7,8.1-2.5c3.4-1.1,6.9-2.3,10.3-3.2c2.8-0.8,3.2-0.4,3.3,2.4
				C205.3,395.1,205.3,397.6,205.2,400.1C205.3,400.1,205.3,400.1,205.2,400.1z"/>
		</g>
		<g>
			<path class="st1" d="M547.6,399.1c0,42.5,0,85,0,127.5c0,6.5,0,13-0.4,19.5c-0.5,8.4-4.4,15.2-10.5,20.8
				c-6.9,6.3-15.2,8.8-24.4,8.8c-59.8,0-119.6,0-179.4,0c-26.4,0-52.9,0-79.3,0c-4.7,0-9.3-0.4-13.8-1.9
				c-6.3-2.1-11.2-5.9-15.4-10.9c-4.9-5.9-7.2-12.8-7.3-20.5c0-3.3-0.1-6.6-0.1-9.9c0-73.1,0-146.3,0-219.4c0-43.5,0-87,0-130.5
				c0-8.1,1.7-15.5,6.5-22.2c2.3-3.2,5.1-5.8,8.3-8c5.6-3.9,11.9-5.5,18.6-5.8c3.1-0.1,6.2-0.2,9.2-0.2c56.4,0,112.8,0,169.2,0
				c3.9,0,7.8,0.2,11.6,0.1c4.4-0.2,7.9,1.4,10.9,4.5c5.7,5.9,11.6,11.6,17.4,17.4c8,8,15.9,16,23.9,23.9c8.5,8.5,17.1,17,25.7,25.5
				c7.1,7.1,14.1,14.2,21.2,21.3c2,2,4.1,3.9,6.1,5.9c0.5,0.5,0.9,1.3,1,2.1c0.4,2.1,0.9,4.3,0.9,6.4
				C547.6,302,547.6,350.5,547.6,399.1C547.6,399.1,547.6,399.1,547.6,399.1z M428,166.9c-3.1,0-5.8,0-8.4,0
				c-55.9,0-111.9,0-167.8,0.1c-1.6,0-3.2,0.1-4.7,0.5c-5,1.1-8.4,4.7-9.2,9.8c-0.3,1.7-0.3,3.4-0.3,5.1c0,43.9,0,87.7,0,131.6
				c0,74.7,0,149.5,0,224.2c0,1.5,0,3,0,4.4c0.2,5.2,2.3,9.4,7.3,11.3c2.4,0.9,5.1,1.1,7.7,1.1c85.3,0.1,170.7,0,256,0
				c2.6,0,5.2,0,7.9-0.2c5.3-0.5,9.1-3.8,10.3-9c0.4-1.6,0.6-3.4,0.6-5.1c0.1-6.6,0.1-13.2,0.1-19.8c0-83.2,0-166.3,0-249.5
				c0-1.6,0-3.1,0-4.9c-5.1-0.2-9.8-0.4-14.4-0.4c-17.7-0.1-35.3-0.1-53,0c-6.8,0-12.7-2.4-18-6.3c-9.3-6.8-13.7-16.1-13.7-27.6
				c0-20.5,0-41,0-61.5C428.2,169.5,428,168.4,428,166.9z M449.3,178.3c-0.3,0.2-0.5,0.4-0.8,0.5c0,1,0,2,0,3c0,15,0,30.1,0,45.1
				c0,2.4-0.1,4.8,0.1,7.2c0.4,6.2,4.9,10.8,11.1,11.3c2,0.2,4.1,0.2,6.1,0.2c15.1,0,30.3,0,45.4,0c1.5,0,3.1,0,5.2,0
				c-0.9-1.3-1.4-2.1-2.1-2.8c-9.1-9.2-18.3-18.4-27.5-27.6c-11.4-11.4-22.8-22.9-34.2-34.3C451.7,179.8,450.5,179.1,449.3,178.3z"
				/>
			<path class="st1" d="M382.2,442.7c29.4,0,58.8,0,88.1,0c6.6,0,13.2,0,19.8,0.1c3.5,0.1,6.7,0.9,9,4c4.2,5.5,1.8,13.8-4.8,15.9
				c-1.5,0.5-3.1,0.7-4.7,0.7c-6.5,0.1-13,0-19.5,0c-63.8,0-127.5,0-191.3,0c-2.2,0-4.3-0.1-6.5-0.4c-5.2-0.5-8.8-4.6-8.9-9.9
				c-0.1-5.3,3.4-9.4,8.8-10.1c1.9-0.2,3.9-0.4,5.8-0.4C312.8,442.6,347.5,442.6,382.2,442.7C382.2,442.6,382.2,442.6,382.2,442.7z"
				/>
			<path class="st1" d="M382.3,317.2c-35.4,0-70.8,0-106.2,0c-0.9,0-1.8,0-2.7-0.1c-5.6-0.4-9.9-4.6-9.9-9.8c0-5.5,4.1-10,9.7-10.5
				c3.3-0.2,6.6-0.1,9.9-0.1c68.8,0,137.6,0,206.3,0c0.5,0,0.9,0,1.4,0c6.4-0.5,9.3,4.1,10.5,8.7c1.1,4.3-2.3,9.8-6.6,11
				c-1.8,0.5-3.8,0.7-5.7,0.7c-26.4,0-52.8,0-79.3,0C400.5,317.1,391.4,317.1,382.3,317.2C382.3,317.2,382.3,317.2,382.3,317.2z"/>
			<path class="st1" d="M382.4,491.2c35.4,0,70.9,0,106.3,0c0.8,0,1.6,0.1,2.4,0c7.2-0.6,11.9,8,9.8,13.4c-1.5,3.8-4.1,6.2-8.2,6.8
				c-2.3,0.3-4.5,0.4-6.8,0.4c-49.3,0-98.6-0.1-148-0.1c-18.2,0-36.5,0-54.7,0c-3.3,0-6.6,0.1-9.9,0c-2.6-0.1-4.8-1-6.7-2.9
				c-3.1-3-3.8-6.7-2.5-10.7c1.4-4.3,4.4-6.5,8.9-6.7c4.3-0.2,8.7-0.3,13-0.3C318.1,491.2,350.3,491.2,382.4,491.2
				C382.4,491.2,382.4,491.2,382.4,491.2z"/>
			<path class="st1" d="M382.8,345.6c35.2,0,70.4,0,105.6,0c1.5,0,3,0,4.4,0.2c6.3,0.6,10.5,7.9,7.8,13.6c-1.8,3.8-4.5,6.5-9.2,6.2
				c-2.8-0.1-5.7,0.1-8.5,0.1c-66.3,0-132.6,0-198.9,0c-3,0-5.9,0.3-8.9,0c-2.4-0.2-5.1-0.6-7.2-1.8c-4.9-2.9-5.8-9.8-2.4-14.4
				c1.9-2.5,4.3-3.9,7.5-3.9c3.1,0,6.2,0,9.2,0C315.8,345.6,349.3,345.6,382.8,345.6C382.8,345.6,382.8,345.6,382.8,345.6z"/>
			<path class="st1" d="M382.7,414.4c-34.5,0-69,0-103.5,0c-2.2,0-4.3,0-6.5-0.1c-5.4-0.4-9.2-4.4-9.1-10c0.1-5.1,2.9-9.3,8.9-9.8
				c3.3-0.3,6.6-0.2,9.9-0.2c62.8,0,125.5,0,188.3,0c7.2,0,14.3,0.1,21.5,0.1c5.6,0,10.3,6.3,9.1,12c-0.9,4.4-4.8,8-9.2,8
				c-6.9,0.1-13.9,0.1-20.8,0.1C441.7,414.5,412.2,414.5,382.7,414.4C382.7,414.4,382.7,414.4,382.7,414.4z"/>
		</g>
	</g>
	<g>
		<path d="M555.4,26.8h-6.8v-2.5h16.6v2.5h-6.9v20h-2.9V26.8z"/>
		<path d="M586.6,37c-0.2-3.1-0.4-6.9-0.3-9.7h-0.1c-0.8,2.6-1.7,5.4-2.8,8.5l-4,10.9h-2.2L573.5,36c-1.1-3.2-2-6.1-2.6-8.7h-0.1
			c-0.1,2.8-0.2,6.6-0.4,9.9l-0.6,9.6h-2.8l1.6-22.5h3.7l3.8,10.9c0.9,2.8,1.7,5.2,2.3,7.6h0.1c0.6-2.3,1.4-4.7,2.4-7.6l4-10.9h3.7
			l1.4,22.5h-2.8L586.6,37z"/>
	</g>
</g>
</svg>
